/* XPM */
static char *_ff7fa0b7a3f42c6879c953516dc2504A1owhdUWibJCSSOm[] = {
/* columns rows colors chars-per-pixel */
"85 59 22 1 ",
"  c black",
". c #040404",
"X c gray3",
"o c #101010",
"O c #181818",
"+ c #202020",
"@ c gray19",
"# c gray22",
"$ c gray25",
"% c #686868",
"& c gray44",
"* c #00A2E8",
"= c #10A8EA",
"- c #30B4ED",
"; c #40BAEE",
": c #60C5F1",
"> c gray53",
", c #9F9F9F",
"< c #B7B7B7",
"1 c #EFE4B0",
"2 c #C3C3C3",
"3 c gray97",
/* pixels */
"2222222222222222222222222222222222222222222222222222222222222222222222222222222222222",
"2222222222222222222222222222222222222222222222222222222222222222222222222222222222222",
"2222222222222222222222222222222222222222222222222222222222222222222222222222222222222",
"2222222222222222222222222222222222222222222222222222222222222222222222222222222222222",
"2222222222222222222222222222222222222222222222222222222222222222222222222222222222222",
"2222222222222222222222222222222222222222222222222222222222222222222222222222222222222",
"22222222222222222222222222222222222222222222222222222222222222222-*;22222222222222222",
"22222222222222222222222222222222222222222222222222222222222222;**==-22222222222222222",
"2222222222222222222222222222222222222222222222<+ +,222222222222=***=22222222222222222",
"2222222222222222222222222222222222222<+           X,222222222222222222222222222222222",
"2222222222222222222222222222222222<+               X,22222222222222222222222222222222",
"222222222222222222222222222222222<o             #   X22222222222222222222222222222222",
"22222222222222222222222222222222<o     %111111111>   ,2222222222222222222222222222222",
"2222222222222222222222222222222<o   %11111111111@$X  X22222222222222222222222:2222222",
"222222222222222222222222222222<o   %1111111111@ o1>   ,222222222222222222-***=2222222",
"22222222222222222222222222222<o   %1111111111@o1111X  X222222222222222222=****;222222",
"2222222222222222222222222222<o   %1111111111@o11111>   222222222222222222222222222222",
"2222222222222222222222222222O   %11111111111 1111111   222222222222222222222222222222",
"222222222222222222222222222<   %111111111111+111111<   222222222222222222222222222222",
"22222222222222222222222222<o   1111111111111111111<o   222222222222222222222222222222",
"22222222222222222222222222O   %111111111111111111<o   %222222222222222222222222222222",
"2222222222222222222222222<   %111111111111111111<o   %2222222222222222222222222--2222",
"2222222222222222222222222O   111111111111111111<o   %22222222222222222222222222=*-222",
"222222222222222222222222<   %11111111111111111<o   %2222222222222222222222222222=*222",
"222222222222222222222222O   11111111111111111<o   %222222222222222222222222222222*-22",
"222222222222222222222222   %1111111111111111<o   %2222222222222222222222222222222==22",
"22222222222222222222222<   1111111111111111<o   %222222222222222222222222222222222222",
"22222222222222222222222O   11111111111111<+    %2222222222222222222222222222222222222",
"22222222222222222222222   %1111111111111<o    %22222222222222222222222222222222222222",
"22222222222222222222222   111111111111<+     %222222222222222222222222222222222222222",
"22222222222222222222222   11111111111<o    %22222222222222222222222222222222222222222",
"22222222222222222222222   111111111<+     %222222222222222222222222222222222222222222",
"22222222222222222222222   11111111<o    %22222222222222222222222222222222222222222222",
"22222222222222222222222   1111111<o    %222222222222222222222222222222222222222222222",
"22222222222222222222222   111111<o        +,22222222222222222222222222222222222222222",
"2222222222222222222<+ +   111111O          X,2222222222222222222222222222222222222222",
"222222222222222222<o      11111<            X,222222222222222222222222222222222222222",
"22222222222222222<o       1111<o     %111>   X222222222222222222222222222222222222222",
"22222222222222222O   #    ,11<o    %111111>   222222222222222222222222222222222222222",
"22222222222222222   %11.  X,<o   %111111111   222222222222222222222222222222222222222",
"2222222222222222<   111>   XO   %1111111111   222222222222222222222222222222222222222",
"2222222222222222O   1111>   .  %11111111111   222222222222222222222222222222222222222",
"2222222222222222   %11111&  . %111111111111   222222222222222222222222222222222222222",
"2222222222222222   ,111113   <++,111111111<   222222222222222222222222222222222222222",
"2222222222222222X  X,1111<   +  X111111111O   222222222222222222222222222222222222222",
"2222222222222222>            >   ,11111111   %222222222222222222222222222222222222222",
"22222222222222222>          %2X    +,1111<   2222222222222222222222222222222222222222",
"222222222222222222>        %22>              2222222222222222222222222222222222222222",
"2222222222222222222222222222222>            %2222222222222222222222222222222222222222",
"2222222222222222222222222222222222>        %22222222222222222222222222222222222222222",
"2222222222222222222222222222222222222222222222222222222222222222222222222222222222222",
"2222222222222222222222222222222222222222222222222222222222222222222222222222222222222",
"2222222222222222222222222222222222222222222222222222222222222222222222222222222222222",
"2222222222222222222222222222222222222222222222222222222222222222222222222222222222222",
"2222222222222222222222222222222222222222222222222222222222222222222222222222222222222",
"2222222222222222222222222222222222222222222222222222222222222222222222222222222222222",
"2222222222222222222222222222222222222222222222222222222222222222222222222222222222222",
"2222222222222222222222222222222222222222222222222222222222222222222222222222222222222",
"2222222222222222222222222222222222222222222222222222222222222222222222222222222222222"
};
