/* XPM */
static char *_e66bdd439734206b407fcefed080652FVsylXxntgUdqT1C[] = {
/* columns rows colors chars-per-pixel */
"50 50 232 2 ",
"   c #1C1807",
".  c #0E0E04",
"X  c #2C1A08",
"o  c #371C0B",
"O  c #281C13",
"+  c #341D12",
"@  c #352807",
"#  c #282618",
"$  c #332119",
"%  c #3B251C",
"&  c #392716",
"*  c #39331C",
"=  c #292208",
"-  c #183224",
";  c #292824",
":  c #382B26",
">  c #3C3828",
",  c #3A3534",
"<  c #383B36",
"1  c #343232",
"2  c #0E2A14",
"3  c #422B1D",
"4  c #462A18",
"5  c #4B341C",
"6  c #59381A",
"7  c #482D0E",
"8  c #643C16",
"9  c #462D24",
"0  c #493727",
"q  c #5A3B23",
"w  c #593D28",
"e  c #4B3E36",
"r  c #543E34",
"t  c #623E24",
"y  c #0E4138",
"u  c #17453A",
"i  c #394339",
"p  c #5E4210",
"a  c #66451B",
"s  c #714218",
"d  c #4C442D",
"f  c #5D4325",
"g  c #53412C",
"h  c #584528",
"j  c #484638",
"k  c #574A38",
"l  c #5D5435",
"z  c #674828",
"x  c #754C27",
"c  c #675325",
"v  c #76542B",
"b  c #6B4E32",
"n  c #624A37",
"m  c #62523B",
"M  c #6B5338",
"N  c #785A38",
"B  c #704E33",
"V  c #79633C",
"C  c #6D653E",
"Z  c #283B44",
"A  c #383B49",
"S  c #3C3E52",
"D  c #332F40",
"F  c #423E4A",
"G  c #3B4549",
"H  c #3B4853",
"J  c #2C5454",
"K  c #3C6852",
"L  c #3E5662",
"P  c #286966",
"I  c #377C74",
"U  c #2C736F",
"Y  c #094F47",
"T  c #474749",
"R  c #584C44",
"E  c #5B5546",
"W  c #454955",
"Q  c #544952",
"!  c #48525A",
"~  c #4D534B",
"^  c #685948",
"/  c #765C43",
"(  c #655A53",
")  c #604F45",
"_  c #526F54",
"`  c #79654B",
"'  c #796758",
"]  c #7C7555",
"[  c #6A6B57",
"{  c #595E61",
"}  c #5B646A",
"|  c #6A6868",
" . c #796869",
".. c #787769",
"X. c #696D76",
"o. c #6C737C",
"O. c #6B7779",
"+. c #767778",
"@. c #83522B",
"#. c #865E37",
"$. c #866539",
"%. c #966B3E",
"&. c #856848",
"*. c #966C44",
"=. c #8A7149",
"-. c #97774C",
";. c #887654",
":. c #927B5D",
">. c #9A7A59",
",. c #A27B56",
"<. c #A57A4D",
"1. c #867869",
"2. c #927E67",
"3. c #867D77",
"4. c #41827A",
"5. c #738A72",
"6. c #9B8158",
"7. c #A1814D",
"8. c #A9865D",
"9. c #B48154",
"0. c #99876A",
"q. c #858678",
"w. c #9A8A79",
"e. c #919678",
"r. c #868A6A",
"t. c #AA8966",
"y. c #A68D76",
"u. c #AA9876",
"i. c #B59070",
"p. c #B1A37B",
"a. c #C4996E",
"s. c #CFA07A",
"d. c #6C7B87",
"f. c #777D86",
"g. c #3B8B8C",
"h. c #539597",
"j. c #788388",
"k. c #718B8B",
"l. c #71A594",
"z. c #58A5A7",
"x. c #74B2AE",
"c. c #7BBAB7",
"v. c #6CAFAB",
"b. c #5EBCC4",
"n. c #5FC3CD",
"m. c #63CACE",
"M. c #6ACCD5",
"N. c #69D4D8",
"B. c #77D6DA",
"V. c #77CECD",
"C. c #7DDAE1",
"Z. c #7EE7EA",
"A. c #848784",
"S. c #988E85",
"D. c #899488",
"F. c #9A9688",
"G. c #969697",
"H. c #8D8E94",
"J. c #A6998A",
"K. c #A29A94",
"L. c #94AF9C",
"P. c #93A992",
"I. c #ABA38B",
"U. c #B9A588",
"Y. c #ABA797",
"T. c #B2AF9B",
"R. c #9C9BA1",
"E. c #91B5AA",
"W. c #ACA7A3",
"Q. c #B3ABA4",
"!. c #B3AFAA",
"~. c #B8AFA8",
"^. c #BAB3AC",
"/. c #B5B1AB",
"(. c #BBB8B6",
"). c #CAA78A",
"_. c #D4BD9C",
"`. c #C8B296",
"'. c #C6B9A7",
"]. c #C7BDB6",
"[. c #E8B78F",
"{. c #A3C9B7",
"}. c #8DC2BC",
"|. c #DBC3AB",
" X c #C6C1BC",
".X c #EBD5BC",
"XX c #E1CCB2",
"oX c #B8B6C3",
"OX c #87CEC7",
"+X c #99D8CB",
"@X c #85DCD7",
"#X c #A9D4C7",
"$X c #B7D2D2",
"%X c #91E3DC",
"&X c #82DEE9",
"*X c #86E5E9",
"=X c #97F8FB",
"-X c #92F0EF",
";X c #ABFFFF",
":X c #B3FFFF",
">X c #B3E1D6",
",X c #CAC9C6",
"<X c #D5CAC8",
"1X c #D6D3CC",
"2X c #DBDAD7",
"3X c #E9D9C8",
"4X c #E3DDDA",
"5X c #DFE0DB",
"6X c #EAE6DE",
"7X c #F8EAD8",
"8X c #FFF8DE",
"9X c #FFE4CF",
"0X c #D9DDE6",
"qX c #EEDFE2",
"wX c #E4E5E3",
"eX c #EAE7E6",
"rX c #F3ECEA",
"tX c #FFF4E4",
"yX c #FEFBEC",
"uX c #F7F3EC",
"iX c #ECECF8",
"pX c #F2ECF8",
"aX c #EBF5FB",
"sX c #F4F2F2",
"dX c #FDF5F4",
"fX c #F5FBF3",
"gX c #FEFEF4",
"hX c #F4F6FB",
"jX c #FBF6FD",
"kX c #F5FCFE",
"lX c #FEFEFE",
"zX c #EDF3E9",
/* pixels */
"lXlXlXkXgXgXgXgXlXlXlXlXlXlXlXlXlXlXjXlXlXlXlXjXjXlXjXkXlXlXkXlXlXgXdXlXlXlXjXlXjXjXgXlXlXlXlXlXlXlX",
"lXlXlXgXgXgXgXlXlXlXlXlXlXlXlXlXlXlXlXlXlXlXlXlXlXlXlXlXlXlXkXlXgXlXlXlXlXlXlXlXlXjXjXlXlXlXlXkXlXlX",
"lXlXlXlXgXgXgXlXlXlXlXlXlXlXlXlXgXlXjXgXlXgXgXgXgXyXgXgXfXgXgXfXgXlXlXkXhXlXlXkXlXlXlXlXlXlXkXlXlXlX",
"lXlXlXlXgXgXgXlXlXlXlXlXlXlXlXlXlXgXlXlXgXgXlXgXgXgXgXgXyXgXgXlXlXkXlXlXlXkXkXlXlXlXlXlXlXlXlXgXlXlX",
"lXlXlXgXlXgXlXlXlXlXlXlXlXlXlXlXlXlXlXlXlXlXlXlXlXlXlXjXgXgXgXdXlXfXfXkXkXkXkXkXlXlXlXlXlXlXlXlXlXlX",
"lXlXlXlXgXlXlXlXlXlXlXlXlXlXlXlXlXlXlXlXlXlXlXlXdXlXjXdXlXjXdXjXgXyXgXlXlXkXkXlXlXkXkXlXgXkXgXlXlXlX",
"lXlXlXlXlXgXlXlXlXlXlXlXlXlXlXgXkXkXkXkXlXkXkXlXgXlXeX1X6XrX6XyXtXyXyXyXyXgXjXlXlXkXkXkXlXlXgXgXlXlX",
"jXlXlXgXlXlXlXlXlXlXlXlXlXlXgXgXgXgXgXgXgXgXgXgX6XeXT.3.J.J.I.XX).|..X|..XtXgXuXlXlXlXlXlXlXlXlXlXlX",
"lXlXjXlXlXlXlXlXlXjXjXlXlXeXyX8X8X8X8X.X_.I.w.0.0.0.=./ &.,.t.,.i.8.8.i.9.).9XuXjXhXlXlXkXlXlXlXlXlX",
"lXlXlXlXlXlXlXlXlXlXlXpXgXyX7X`._._.y.;.:.;.` :.M z z b v #.&.#.-.N #.a.[.a.i.tXgXdXlXlXjXlXjXlXlXlX",
"lXlXlXlXlXlXlXlXlXjXlXrXyX3XU.u.0.c m ` h m ( 3 @ X o 5 z b #.&.` #.7.<.<.s.s.).yXuXlXlXlXlXjXlXlXlX",
"lXlXlXlXlXlXlXlXlXjXlXjX8XU.u.p.* #     # # ; ; i < i j T R j j ] l ;.$.*.a.a.i.yXgXlXjXlXlXlXlXlXlX",
"jXlXlXlXlXlXlXlXjXjXjXgX|.0.p.C 2 u y y P P P h.h.z.v.x.c.c.x.l.l.5.] r.6.N 6 &.tXgXjXkXlXlXjXlXlXlX",
"lXlXlXlXlXlXlXlXpXlXdXtXU.$.8.@ y u P I g.z.V.C.=X=X-X*X&X%X@XB.c.}.E.e.] c c V 3XgXlXkXlXkXlXlXlXlX",
"lXlXlXlXlXkXlXlXlXlXdXyX_.$.7.c K 4.U U b.%X-X=XN.M.n.n.M.B.&X@XC.V.c.{.e.] p.p.|.gXgXkXkXlXlXlXlXlX",
"lXlXlXlXlXlXlXlXlXlXdXtX|.=.7.;._ J I z.OX:X;Xb.M.b.N.*X=X-XZ.*XZ.;XOXE.T.p.U.e.I.fXkXkXlXlXlXgXlXlX",
"lXlXlXlXlXgXlXlXjXlXjXrXS.#.t.6._ 4.K 5.+X%X=X-XV.m.m.N.Z.-XZ.N.-X%X+XL.'.p.).M ..zXkXaXkXlXjXjXlXlX",
"kXlXlXlXgXlXjXlXlXhXlX2XS.) #.:.e.5._ 5.l.E.+X%X%X@XV.V.V.B.@X@X%XOXE.e.r.s.x 5 1.2XkXkXkXlXjXgXlXlX",
"lXlXlXlXjXlXlXlXjXlXlX,XJ./ b #.6.0.] 5.e.P.L.L.{.{.#X#X#X{.>X>Xx.E.P.r.=.&.7 5 S.,XkXkXlXjXlXdXlXlX",
"lXlXlXjXlXgXlXlXhXkXhX2XK.' / b p $.-.7.U.U.U.I.p.P.T.T.T.P.e.e.5.5.E l =.c 6 z S.2XkXkXkXjXlXlXlXlX",
"lXlXlXlXlXlXlXlXlXhXhXwXA.3.^ b v @.@.*.<.-.<.t.t.t.>.>.6.;.&./ ^ j g @ @ z 4 2.q.iXlXiXlXlXkXgXlXlX",
"lXlXlXlXlXlXlXlXkXaXlXE.~ W.3.^ N v s #.*.@.x v 8 8 8 8 z z t 6 & + & X 7 h ' 3.+.pXlXpXlXkXfXgXlXlX",
"lXlXlXlXlXlXlXlXkXkX0X} Q (.,X+.m b z ` ,.=.N s s 8 8 z x t 4 o 4 + o m r.k A., H.pXjXjXlXlXfXfXlXlX",
"lXlXlXlXlXlXlXkXkXkXH.{ G.G.sX/.e.q.^ E &.;.N f z a f f w 0 & o + % ' 1Xq.i D ; oXpXjXlXlXfXgXgXlXlX",
"jXlXlXlXlXlXlXlXlX0XX.+.fXH.2XL.O.d.k.D.q.5.[ R d j 0 j ~ j ~ Q  . .oXH.A H L Z 0XpXlXjXlXgXyXgXlXlX",
"lXlXlXlXlXlXlXlXpX X../.rXS.1XoXO.k.k.d.O.j.A.q.q.A. .O.+.X.X.X.Q Q H.{ Z L Z ! iXjXjXlXgXgXyXyXlXlX",
"gXlXlXlXlXlXlXlXlX'.R dXgX1XY.,Xo.d.d.d.j.j.d.O.O.X.W G H A A A D F d.H H L Z j.kXlXlXlXjXgXgXgXgXlX",
"lXgXlXlXkXkXlXgXrXw.;.`.yX7X[ 3.j.j.f.o.X.O.f.j.j.o.H S W S S A D A o.! H H Z $XlXlXlXjXgXlXgXjXlXlX",
"lXlXlXlXkXlXlXlX<X0.`.U..XyX1.) Q (  .f.A.f.+.+.f.X.G A F S F F j ; ! T A D ! iXlXlXlXgXlXlXlXlXlXlX",
"gXlXlXlXkXlXlXgX`.t >.).i.9X2.^ ^ n n ) ( [ +.+.O.| T < F , , , i . O ; : : | lXgXkXkXlXlXlXlXjXlXlX",
"lXlXlXkXlXkXlXgX3XB v ,.`.s.:.` N b z M [ [ E ~ ~ ~ < < < * : # * O   + 0 9  .dXgXgXgXkXlXlXlXlXlXlX",
"lXlXlXkXkXlXgXgXgX_.B N u./ 7 5 / w 7 0 l l j > > j > i d : * * = 0 + + r 0 ' 7XgXgXkXgXjXlXlXlXlXlX",
"lXkXlXlXlXlXlXgXgXgX'.^ e + e R ~ < 1 e  .S. .g g 0 0 d r 9 : % & & + 9 r 9 ( ].4XgXgXgXlXkXlXjXlXlX",
"gXlXkXlXlXgXgXlXgXdXjX~.e ; 3.K.R.G.H.F.K.w.;.h z w q f t 9 4 3 & 4 % & 0 9 3.].<XdXlXjXlXlXkXlXlXlX",
"lXlXgXlXlXlXlXlXlXsXlXlXW.; ; , E j > d m ` ` N z z 6 f w 9 3 3 % % + 3 r 0 S.Q.^.uXlXfXlXlXlXlXlXlX",
"kXkXlXlXlXlXlXlXdXlXlXjXjXqX].Q ( l l c N =.=.v z a 6 q q 4 4 3 3 + X k R 9 K.~.Q.uXlXgXlXlXlXkXlXlX",
"lXgXlXlXlXlXlXlXlXdXlXdXpXjXjX..h c C V c %.7.$.x a 8 q w 5 4 9 % $ % R e : K.]./.uXlXjXlXkXlXlXlXlX",
"lXlXkXlXlXlXlXlXlXrXlXlXjXdXgX].C c c a p $.-.v x a 6 t q 9 4 9 % % + e d ( Q.Q. XdXgXgXlXlXlXlXlXlX",
"kXlXlXlXlXlXlXlXsXlXlXeXlXlXlXgXu.N c v V 7.,.v v z f w w 9 % : : : # ( [ K.~.Q.6XlXjXlXlXlXlXlXlXlX",
"lXlXlXlXlXlXlXlXlXsXjXlXlXrXlXdXyXU.;.` c v =.&.M z h w r 3 + + O 9 R K.S.!.~.1XuXlXgXlXlXkXkXlXlXlX",
"lXlXlXlXlXlXlXlXlXlXlXlXlXlXlXlXgXuX3X'.J.y.2.' k ) 0 0 R R j R 3.K.]. X!.^.4XgXlXlXlXlXlXlXlXlXlXlX",
"lXlXlXlXlXlXlXlXlXlXlXlXlXlXlXlXlXjXjXqX<X].Q.J.J.Y.F.F.^.^.!. X(.!.W./.,XwXgXlXlXlXlXlXlXlXlXlXlXlX",
"lXlXlXlXlXlXlXlXlXlXlXlXlXlXlXlXjXlXlXlXjXpX4X<X].]./.Y.^.!.W./. X X1XrXjXlXlXsXlXlXlXlXlXlXlXlXlXlX",
"lXlXlXlXlXlXlXlXlXlXlXlXlXlXlXlXjXjXlXlXjXjXjXpXeXiXeX5XwX5X2X6XwXzXgXlXlXlXlXlXlXlXlXlXlXlXlXlXlXlX",
"lXlXlXlXlXlXlXlXlXlXlXlXlXlXlXlXlXlXlXjXlXlXlXlXjXlXlXkXlXlXlXlXlXlXlXkXfXlXlXlXlXlXlXlXlXlXlXlXlXlX",
"lXlXlXlXlXlXlXlXlXlXlXlXlXlXkXlXlXlXlXlXkXlXlXlXlXlXlXlXjXjXjXlXgXkXlXlXlXlXlXhXlXlXlXlXlXlXlXlXlXlX",
"lXlXlXlXlXlXlXlXlXkXlXkXlXlXlXlXgXlXgXkXgXlXgXkXjXfXgXlXlXlXlXlXlXlXlXkXhXhXlXlXlXlXlXlXlXlXlXlXlXlX",
"lXlXlXlXlXlXlXlXlXlXlXlXlXkXlXlXlXgXgXlXgXgXgXlXlXgXlXlXlXlXlXhXlXkXlXgXlXlXlXlXlXlXlXlXlXlXlXlXlXlX",
"lXlXlXlXlXlXlXlXlXlXlXlXlXlXlXlXlXlXlXlXlXlXlXlXlXlXlXlXlXlXlXlXlXlXlXlXlXlXlXlXlXlXlXlXlXlXlXlXlXlX",
"lXlXlXlXlXlXlXlXlXlXlXlXlXlXlXlXlXlXlXlXlXlXlXlXlXlXlXlXlXlXlXlXlXlXlXlXlXlXlXlXlXlXlXlXlXlXlXlXlXlX"
};
