/* XPM */
static char *_390e25548454739ddd2297bca5fd71dMw2lMJO7fe4SWcaj[] = {
/* columns rows colors chars-per-pixel */
"50 50 156 2 ",
"   c None",
".  c #232424",
"X  c #2A2927",
"o  c #2C2C2C",
"O  c #34312F",
"+  c #3E352D",
"@  c #2E2F30",
"#  c #2F3030",
"$  c #333334",
"%  c #343638",
"&  c #37383A",
"*  c #3A3B3D",
"=  c #463E38",
"-  c #4D4239",
";  c #535A33",
":  c #575C3A",
">  c #5A5D3E",
",  c #5A6236",
"<  c #3D3F41",
"1  c #3F4143",
"2  c #434344",
"3  c #444648",
"4  c #47484C",
"5  c #4A4B4E",
"6  c #564C44",
"7  c #504F4F",
"8  c #5C524A",
"9  c #4C4E52",
"0  c #4F5154",
"q  c #525356",
"w  c #595655",
"e  c #5C5957",
"r  c #54565A",
"t  c #57585B",
"y  c #5A5B5E",
"u  c #67574A",
"i  c #6C5B4D",
"p  c #655D57",
"a  c #6B5E53",
"s  c #615D5A",
"d  c #5F6443",
"f  c #676E47",
"g  c #6B6751",
"h  c #6C6D55",
"j  c #6B635D",
"k  c #746253",
"l  c #7D6653",
"z  c #7F6957",
"x  c #75685C",
"c  c #7E6A59",
"v  c #70725C",
"b  c #5B5D61",
"n  c #5F6065",
"m  c #626365",
"M  c #6A6664",
"N  c #646569",
"B  c #696A6B",
"V  c #726B65",
"C  c #7E6F62",
"Z  c #726D6A",
"A  c #7D746D",
"S  c #6E6F70",
"D  c #737374",
"F  c #7C7C7C",
"G  c #806B58",
"H  c #807A63",
"J  c #80756D",
"K  c #857E6B",
"L  c #887A6D",
"P  c #837970",
"I  c #7D8363",
"U  c #8A806B",
"Y  c #848374",
"T  c #84817F",
"R  c #8C827A",
"E  c #928673",
"W  c #918479",
"Q  c #978C7A",
"!  c #9B8C7A",
"~  c #838282",
"^  c #8B8885",
"/  c #878889",
"(  c #8C8C8C",
")  c #938981",
"_  c #908E8E",
"`  c #96928F",
"'  c #8E8F91",
"]  c #939394",
"[  c #9A9896",
"{  c #9C9C9C",
"}  c #A39583",
"|  c #A99987",
" . c #A69689",
".. c #AD9E8C",
"X. c #A29A94",
"o. c #AB9E93",
"O. c #A09F9F",
"+. c #AEA297",
"@. c #B6A594",
"#. c #B5A598",
"$. c #BCAA9C",
"%. c #9F9FA0",
"&. c #A4A3A3",
"*. c #ADA6A1",
"=. c #AFA8A2",
"-. c #ABABAB",
";. c #B3AAA4",
":. c #BAADA4",
">. c #B3AFAD",
",. c #B7B2AF",
"<. c #B5B4B4",
"1. c #B8B6B5",
"2. c #BDB8B4",
"3. c #B8B7B8",
"4. c #BCBBBB",
"5. c #C1AE9C",
"6. c #C5B19F",
"7. c #C4B3A4",
"8. c #C9B4A3",
"9. c #CEB9A7",
"0. c #CFBAA9",
"q. c #D5BEAB",
"w. c #C1BEBD",
"e. c #D7C0AD",
"r. c #D9C2AE",
"t. c #C6C2BF",
"y. c #DDC5B1",
"u. c #DFC8B3",
"i. c #E2CAB5",
"p. c #E6CDB9",
"a. c #E8CFBA",
"s. c #ECD2BD",
"d. c #C0BFC0",
"f. c #C4C3C3",
"g. c #C7C8C8",
"h. c #CCCCCC",
"j. c #D0CFCF",
"k. c #D1D0CF",
"l. c #CFCFD0",
"z. c #D3D3D3",
"x. c #D8D7D7",
"c. c #D9D8D8",
"v. c gray86",
"b. c #DDDDDD",
"n. c #DCDCDC",
"m. c #F0D6C0",
"M. c #E1E1E1",
"N. c #E7E7E7",
"B. c #E4E4E5",
"V. c #E4E4E4",
"C. c #EAEAEA",
"Z. c #EBEBEB",
"A. c gray96",
"S. c #F5F6F6",
"D. c #F3F3F3",
"F. c #F9F9F9",
/* pixels */
"                                                                                                    ",
"                                                                                                    ",
"                                                                                                    ",
"                                                    1 3 4 4 3 2 1 *                                 ",
"                                          3.S 0 0 r r r t t r t r r w r 5 &                         ",
"                                        -.F t r r r r r r r r r r r r r r r 5                       ",
"                                      { / y t r r r r r r r r r r r r r 9 9 9 5 %                   ",
"                                    ] ( N t r r r r r r r r r r r r r 5 N / b 5 *                   ",
"                                  ( ( S b r r r r r r r r r r r r r 9                               ",
"                                  -.( b r r r r r r r r r r r r r 0 %                               ",
"                                z.&.n r r r r r r r r r r r r r r r <                               ",
"                              n.%.b r r r r r r r r r r r r r r r r r <                             ",
"                            x.] y r r r r r r r r r r r r r r r r r r 0 @                           ",
"                        Z.4.F t r r r r r r r r r r r r r r r r r r r r 2                           ",
"                      g./ b r r r r r r r r r r r r r r r r r r r r r r 0 1                         ",
"                  f.4.N r r r r r r r r r r r r r r r r r r r r r r r r t r 5 %                     ",
"                  z.f.m 3 9 9 r r t r t t t r r r r r r r r r r r t r r r r r 4                     ",
"                    n.-.F y y n 0 4 4 9 9 9 0 r r r r r r r r 9 0 9 9 9 0 t 3 $                     ",
"                        f.-.g.N.f.)  .W J V p s w w r w w w y j Z K D +.g.c.[                       ",
"                      c.v.<.n.h.h.7.m.s.s.a.a.i.y.q.q.r.r.y.u.p.a.s.9.z.F.S.4.                      ",
"                      M.M.<.V.3.f.8.s.s.s.s.s.s.s.s.s.m.s.s.a.m.s.s.9.h.A.A.h.                      ",
"                      N.V.3.Z.3.4.0.s.y.5.q.s.a.s.s.a.s.s.s.p.6.8.s.e.t.A.A.z.                      ",
"                      Z.b.4.Z.<.,.y.u.K v Y q.s.s.s.m.a.a.s...h Y 5.i.2.B.v.M.                      ",
"                      B.z.f.V.<.;.a.$.f I Y | s.s.a.a.s.s.a.H f Y ! p.:.M.w.N.                      ",
"                      v.4.z.l.3.:.s.6.8 , : #.s.m.s.s.s.s.a.L ; : ..s.$.v.w.V.{                     ",
"                    h.h.>.z.<.>.| a.a.Q g ! i.i.9.$.$.5.8.i.e.E } p.y.X.w.j.j.<.                    ",
"                  B.h.[ ] l.f.-.1...r.s.i.u.#.=.w.h.h.z.f.+.#.e.y.8.=.v.&.j.4.4.                    ",
"                  b.v.R i ) -.-.S.k.+.o.+.=.j.D.Z.d.-.f.D.D.z.,.>.f.Z.Z.4.B.h.f.                    ",
"                  ] { T i x h.&.N.S.D.N.V.Z.A.A.Z.b.Z.b.Z.A.A.A.D.A.A.z.j.F.M.h.f.                  ",
"                  4.&.~ k a V p g.D.D.D.D.D.A.D.D.A.D.D.A.D.D.D.D.D.D.4.B.A.z.z.h.                  ",
"                  M.f.&.a a k g _ D.D.D.D.D.D.D.D.D.D.D.D.D.D.D.D.D.v.f.A.Z.d.B.{                   ",
"                  Z.b.-.A = c k Z f.D.D.D.D.D.D.D.D.D.D.D.D.D.D.D.Z.4.Z.A.Z.Z.h.                    ",
"                    D.h.&.s i c C { z.D.N.D.D.D.D.D.D.D.D.D.D.V.l.d.z.A.D.D.D.-.                    ",
"                    z.z.-.z.` c G 1.-.f.3.D.D.D.D.D.D.D.D.D.D.h.( z.A.D.D.D.Z.{                     ",
"                      h.-.z.D.[ l W N.{ D Z.A.D.D.D.D.D.D.D.D.] m c.A.D.A.D.f.                      ",
"                      N.f.t.F.V.L z 4.' q &.S.M.M.D.D.D.f.B.3.N b ] D.D.b.-.                        ",
"                        z.] <.b.1.z j N m r <.4.] D.D.M.F >.N b m N 3.%.                            ",
"                              ~ [ x i w m t y m 1 w.D.' % q b t m B                                 ",
"                                h.&.k 8 b b n # . 2 P % . 2 m r m W                                 ",
"                                v.g.J i 9 b n # o 1 . . . 1 m r B                                   ",
"                                  Z.&.i 6 b n # . o . . . 3 N N -.                                  ",
"                                  F.C.^ u w n # . X X . . 3 N B <.                                  ",
"                                D.S.V.<.A 6 b $ . . X . . < q r O.                                  ",
"                                  M.g.,.F - 2 o . X X . . . . o                                     ",
"                                    4.] q X + . . . . . o # .                                       ",
"                                        ( 9 = O # % r 1 3 3 $                                       ",
"                                        [ &.5 + * q ] 2 o o                                         ",
"                                                                                                    ",
"                                                                                                    ",
"                                                                                                    "
};
