/* XPM */
static char *e8d35dbcd0a04ea4a5d9f37fe206284bT8UPN6fVahJHb5jr[] = {
/* columns rows colors chars-per-pixel */
"50 50 244 2 ",
"   c #3B3211",
".  c #4D2F07",
"X  c #4C3607",
"o  c #583604",
"O  c #47371A",
"+  c #55351C",
"@  c #5A3617",
"#  c #532F1F",
"$  c #703F00",
"%  c #623516",
"&  c #483928",
"*  c #4D3D34",
"=  c #7D3D21",
"-  c #594312",
";  c #684504",
":  c #734905",
">  c #6C5406",
",  c #684B18",
"<  c #75571C",
"1  c #715219",
"2  c #7D6B11",
"3  c #77680D",
"4  c #5A4A3B",
"5  c #5A4F34",
"6  c #664626",
"7  c #784527",
"8  c #695526",
"9  c #7D5528",
"0  c #654735",
"q  c #784737",
"w  c #6E573A",
"e  c #7D6B30",
"r  c #5D5540",
"t  c #745443",
"y  c #78634A",
"u  c #796856",
"i  c #7D735A",
"p  c #6F605B",
"a  c #7C6F66",
"s  c #8E380B",
"d  c #833D31",
"f  c #8C4A07",
"g  c #964A06",
"h  c #875602",
"j  c #874F19",
"k  c #924A15",
"l  c #835819",
"z  c #955A19",
"x  c #99590B",
"c  c #A65708",
"v  c #A85916",
"b  c #866706",
"n  c #8F7014",
"m  c #AC661A",
"M  c #B76916",
"N  c #BE7618",
"B  c #B36D11",
"V  c #88472A",
"C  c #855929",
"Z  c #955B29",
"A  c #88473C",
"S  c #924A36",
"D  c #89533A",
"F  c #914E33",
"G  c #AE5635",
"H  c #88682B",
"J  c #957D2A",
"K  c #976634",
"L  c #897834",
"P  c #947C39",
"I  c #926D2B",
"U  c #A76924",
"Y  c #B76E22",
"T  c #BB7426",
"R  c #AD7631",
"E  c #AF732D",
"W  c #C27313",
"Q  c #C5751C",
"!  c #CA7919",
"~  c #C16D15",
"^  c #CA5F3F",
"/  c #C37B29",
"(  c #C47D3D",
")  c #855546",
"_  c #975447",
"`  c #865749",
"'  c #A75E47",
"]  c #94774A",
"[  c #8A6A59",
"{  c #996654",
"}  c #8B7457",
"|  c #8E704B",
" . c #A86448",
".. c #A96651",
"X. c #B26A57",
"o. c #B1704A",
"O. c #957867",
"+. c #8F756D",
"@. c #B67867",
"#. c #A37E75",
"$. c #A3796D",
"%. c #C9664A",
"&. c #C97153",
"*. c #9C851F",
"=. c #A28C1F",
"-. c #B9A812",
";. c #9D8C3E",
":. c #A98836",
">. c #BB8C2B",
",. c #B5AE3A",
"<. c #CB8227",
"1. c #C58430",
"2. c #CBB334",
"3. c #E3CD3B",
"4. c #FAE639",
"5. c #F8E72D",
"6. c #948652",
"7. c #A4934D",
"8. c #B69B46",
"9. c #A98A51",
"0. c #B29F50",
"q. c #BAA940",
"w. c #BDB350",
"e. c #998668",
"r. c #898A77",
"t. c #9A8679",
"y. c #9C917A",
"u. c #A68B67",
"i. c #B58766",
"p. c #A69A66",
"a. c #B59A6D",
"s. c #A78A7E",
"d. c #BA8975",
"f. c #A7967D",
"g. c #B4947C",
"h. c #B8AF69",
"j. c #B7A875",
"k. c #BDB079",
"l. c #C09352",
"z. c #D5BB46",
"x. c #C7A955",
"c. c #C9B759",
"v. c #CEB443",
"b. c #C4B766",
"n. c #C4B17A",
"m. c #D9C84C",
"M. c #EACC58",
"N. c #F9DD5B",
"B. c #E2D34E",
"V. c #FAE44C",
"C. c #F8E558",
"Z. c #D6CE6E",
"A. c #EED963",
"S. c #ECD068",
"D. c #F9E567",
"F. c #FFEE71",
"G. c #EDE961",
"H. c #9E9983",
"J. c #A8978C",
"K. c #A99888",
"L. c #B4958A",
"P. c #B89A91",
"I. c #B08B85",
"U. c #94A096",
"Y. c #ACA587",
"T. c #B8A587",
"R. c #B7A697",
"E. c #B8B082",
"W. c #9BACB6",
"Q. c #9DA7A8",
"!. c #B7A9A7",
"~. c #A1B8BD",
"^. c #B9B4A9",
"/. c #C69C94",
"(. c #D29B8D",
"). c #C5A996",
"_. c #CEB596",
"`. c #CEB08E",
"'. c #E7AC9B",
"]. c #C5A8A4",
"[. c #C2B4AD",
"{. c #C9BDAE",
"}. c #D6B9A7",
"|. c #CFBBB0",
" X c #E9B8A7",
".X c #E4BCB2",
"XX c #CCC386",
"oX c #D8C59A",
"OX c #D0C784",
"+X c #E1D996",
"@X c #C7C2A9",
"#X c #D7CBA9",
"$X c #D6C9BB",
"%X c #FBC8B3",
"&X c #FFD1B5",
"*X c #E8D4B7",
"=X c #9BB9C3",
"-X c #A9BAC2",
";X c #B1BAC4",
":X c #B8BDC9",
">X c #9CC4D9",
",X c #B5C4CB",
"<X c #A2C6DA",
"1X c #A8C6D8",
"2X c #B6CDDA",
"3X c #AACBE1",
"4X c #B7D7E5",
"5X c #AAD4E2",
"6X c #D6C9C3",
"7X c #DBD4C6",
"8X c #D4DADC",
"9X c #D1D0D1",
"0X c #E5D6C4",
"qX c #E9DBD6",
"wX c #FFD9CB",
"eX c #DEE0D5",
"rX c #E9E4D9",
"tX c #FDEDD3",
"yX c #F5EBD8",
"uX c #FEF8DA",
"iX c #F6F2CF",
"pX c #CEDCE8",
"aX c #DBE2E5",
"sX c #D8E1EA",
"dX c #DBEBFD",
"fX c #D4E7F8",
"gX c #D1EAF6",
"hX c #EDEAE6",
"jX c #E3E4EE",
"kX c #E2EAEB",
"lX c #E7E6E6",
"zX c #FFFCE3",
"xX c #FCF5ED",
"cX c #FFFDEC",
"vX c #F7F2E9",
"bX c #E8F5FA",
"nX c #FBF6F5",
"mX c #F6FAF4",
"MX c #FDFCF5",
"NX c #FDF7FB",
"BX c #F6FCFC",
"VX c #FEFEFD",
"CX c #F4F3F6",
"ZX c #EFEEEF",
/* pixels */
"VXVXVXVXVXVXBXMXVXVXVXVXVXVXVXVXVXVXVXVXVXVXBXBXVXVXVXVXVXBXVXVXVXBXVXVXVXVXVXVXVXVXVXVXVXVXVXVXVXVX",
"VXVXVXVXVXVXVXVXVXVXVXVXVXVXVXVXVXVXVXVXVXVXVXBXVXVXNXVXVXBXVXVXVXVXVXmXVXVXVXVXVXVXVXVXVXVXVXVXVXVX",
"VXVXVXVXVXVXVXMXVXVXVXVXVXVXVXVXVXMXVXVXMXVXVXVXVXVXVXVXVXVXVXVXVXVXVXVXVXVXVXVXVXVXVXVXVXVXMXVXVXVX",
"VXVXVXVXVXVXVXVXVXVXVXVXVXVXVXVXVXVXVXVXVXVXVXVXVXVXVXVXMXVXVXVXNXVXVXVXVXVXVXVXVXVXVXVXVXVXVXVXVXVX",
"VXMXVXVXVXVXVXVXVXVXVXVXVXVXVXNXVXVXVXVXVXVXVXMXVXVXVXVXVXMXBXBXVXVXVXVXVXVXVXVXVXVXVXVXVXVXVXMXVXVX",
"MXVXVXVXVXVXVXVXVXVXVXNXVXVXMXBXVXVXVXVXVXVXVXMXVXVXVXVXVXMXmXVXVXVXVXMXVXVXVXVXVXVXVXVXVXVXVXVXVXVX",
"VXVXVXVXVXVXVXVXVXVXVXVXVXVXVXVXVXVXVXVXVXVXVXBXVXNXVXVXVXVXVXVXVXVXVXVXVXVXVXVXVXVXVXVXVXVXVXVXVXVX",
"VXVXVXVXVXVXVXVXVXVXVXVXVXNXVXVXVXVXMXcXcXcXcXcXcXMXVXVXVXVXVXVXVXVXVXVXVXVXVXVXVXVXVXVXVXVXVXVXVXVX",
"BXVXBXVXVXVXVXVXVXVXVXBXVXVXVXVXVXVX*Xi.o.o.9.a.oXtXNXVXVXVXVXVXVXVXVXBXVXVXMXVXMXVXVXVXVXVXVXVXVXVX",
"VXVXVXVXVXVXVXVXVXVXVXVXVXVXBXVXVX).C j m Y Y z j K g.yXMXMXVXVXMXVXVXVXBXVXVXVXVXVXNXVXVXVXVXVXVXVX",
"VXVXVXVXVXVXVXVXVXVXVXVXVXMXVXVX0X6 E c B Q / Q M x z C }.nXVXVXVXMXVXVXVXBXBXVXVXMXMXMXVXVXVXVXVXVX",
"MXVXVXVXVXVXVXMXVXmXVXVXMXMXVXnX$.1 m N g W W W W B M E 1 _.nXNXVXVXVXMXVXVXVXVXVXMXVXVXVXVXVXVXVXVX",
"VXMXVXVXVXVXVXVXMXVXVXVXcXMXmXvX1 z c v g m N <.! ! v T E , }.VXcXcXzXMXVXVXVXmXVXMXVXVXVXVXVXVXVXVX",
"VXVXVXVXVXVXVXVXVXVXVXMXiX#XzX#Xo U v v k k 1.<.W W M c / U w zXuXoX#XcXMXVXmXVXVXMXVXMXVXMXVXVXVXVX",
"VXVXVXVXVXVXBXVXVXVXVXcX+Xh.w.;.X : v v k z 1.N W W M c ~ T 9 6.,.Z.XXuXVXVXVXMXVXVXVXVXMXVXVXVXVXVX",
"VXVXVXVXVXVXVXVXVXVXNXcXOXm.G.m.q.:.x U K z U N W W M g M / H > B.G.h.zXVXVXVXVXVXVXVXVXVXVXVXVXVXVX",
"VXVXVXmXBXVXVXVXVXVXVXMX*X;.C.V.V.D.>.E l o z M T M Z s v ( Z < A.w.E.MXVXVXVXVXVXVXVXVXVXVXVXVXVXVX",
"VXVXVXmXVXVXVXVXVXVXVXVXMXp.*.2.2.2.b h > :.n h h g k s g k ; ; n e yXVXmXVXVXVXVXVXVXVXVXBXVXVXVXVX",
"NXVXVXmXMXVXVXVXVXVXVXVXVXcXe.8 , ; $ : 2.V.D.N.z.N s ^ v >.S.J 8 yXNXVXVXVXVXMXBXVXVXlXmXVXVXVXVXVX",
"NXVXVXBXMXVXVXVXVXVXVXVXBXVXNX4 - , ; >.V.-.n *.q.:.s %.F l.x.H 7XVXVXVXVXVXMXVXVXVXjX:XkXVXMXMXBXVX",
"VXVXVXBXMXVXVXNXVXVXVXVXVXmXhX4 8 - b C.A.b 1 | | ` d A q O.{ [ hXVXVXVXVXVXVXmXVXsXW.dX8XVXVXnXVXVX",
"VXVXVXVXVXMXMXVXVXVXVXBXBXVXrXr h.x.2.F.:.9 g.s.+.#. Xd.O.I.P.+.hXBXVXVXVXVXVXBXaX,X5XdXsXmXBXVXVXVX",
"VXVXVXVXVXVXMXVXVXVXVXVXVXVXhXa 5 e Z.8.9 d. X$.[ ).%X%XL.I.).P.xXVXVXVXVXBXVXbX,X4X<XgXsXCXVXVXVXVX",
"VXVXVXVXVXVXVXVXVXVXVXVXVXNXNX6Xt.6 % : F '.wX/.d. X&X&X X)..X].NXVXVXVXVXVXbX~.4X>X5XbXsXVXVXVXVXVX",
"VXVXVXVXVXVXVXVXVXVXVXBXNXVXvX!.P...d d d &..X%X@.X.'. X@.(./.I.NXVXVXVXVXVX~.4X3X>XpXdXaXVXVXVXVXVX",
"VXVXVXVXVXVXVXVXVXVXVXMXMXVXnXR.I.` _ X.&.G X.'  .D = ) V _ t ].VXVXVXVXVXpX=X5X>X3XbX8XmXVXVXVXVXVX",
"VXVXVXMXVXVXVXVXVXmXVXVXVXMXVXnX!.^.[ ) ..&.v ^ ' ) $.{ F ..` qXMXVXVXBXBX~.<X>X3XgX;XZXVXVXVXVXVXVX",
"VXVXVXVXVXVXVXVXmXVXVXVXVXVXVXVXVXvXe.o d %.%.%._ ) @.@..._ { xXMXBXmXBX,X1X1X3XdX;XkXVXVXVXMXVXVXVX",
"VXVXVXVXVXVXVXVXMXVXVXVXVXVXVXrXe.7.b.P + 0 {  . .X.' K D 6 6.7.@XVXVX8X=X4X-XdX:XjXVXVXNXVXVXNXVXVX",
"VXVXVXVXVXVXVXVXNXVXVXVXVXBXVXMX_.;.0.7.6 O @ % 7 d  .F # y p.j.yXMXkXW.4X<XdX-XsXVXVXVXVXVXVXVXVXVX",
"VXVXVXVXVXVXVXVXVXVXVXVXVXVXNXMXR.O & O - < H ; . # @ + * & y.zXuX7XQ.2X1XpX,XaXVXVXNXVXVXVXVXVXVXVX",
"VXVXMXVXVXVXVXVXVXVXVXVXVXVXNX7XR.{.& 5 7.M.N.v.J 1 6 | r ^.J.uXuXY.r.U.sX;XaXBXVXMXVXVXVXVXVXVXVXVX",
"VXVXVXVXVXVXVXVXVXVXVXVXVXVXcXI. XT.H.p.B.4.4.4.4.3.M.w.} @X}.a.n.i.n.p.^.jXVXnXVXVXVXVXVXVXVXVXVXVX",
"VXVXVXVXVXVXVXVXVXVXVXVXVXMXtXe.] } xXp.m.V.5.5.5.4.N.8.iXp u.a.n. .7.L 6XVXVXVXVXVXVXVXVXVXVXVXVXVX",
"VXVXVXVXVXVXVXVXVXVXVXVXMXzXj.6.0 J.NXY.J v.C.C.C.D.8.a.cXeXu y _._.e.7XVXNXVXVXVXVXVXVXVXVXVXVXVXVX",
"NXVXVXVXVXVXVXVXNXVXVXBXVXrX| h.u p CX[.. : 3 2 3 > . u.cXBXr.u L.+.qXNXVXVXVXBXVXVXVXVXVXVXVXMXVXVX",
"VXVXVXVXVXVXVXVXVXVXBXVXVXrXe.f.).+.qX|., l X     X C K zX@X5 y K.[.NXVXVXVXVXVXMXVXVXVXVXVXVXMXVXVX",
"NXVXVXVXVXVXVXVXVXVXVXBXVXVXR.K.f.J.NX}.j K u 6X8Xu K Z tX6Xi R.xXVXVXVXVXNXVXBXMXVXVXVXVXVXVXNXVXVX",
"VXVXVXVXVXVXVXVXVXMXVXVXVXNXVX9X6XVXNXR.C F $XVXVX[.9 C $XVXlXVXVXNXVXVXVXVXVXVXVXVXVXNXVXVXVXNXVXVX",
"VXVXVXVXVXVXVXVXVXVXVXNXVXVXVXVXVXVXVX[ o | cXBXVX^.o 8 rXVXVXVXVXVXVXMXVXVXBXVXVXVXVXBXNXNXVXVXVXVX",
"VXVXVXVXVXVXVXVXMXMXVXVXVXVXVXVXNXVXMXi 8 j.cXmXVXH.< 7.cXVXVXVXVXVXVXVXVXVXVXVXVXVXMXMXVXVXVXVXVXVX",
"VXVXVXVXVXVXVXVXVXVXVXVXVXVXVXVXVXVXyXE.k.`.zXMXVXy.+Xh.rXNXVXVXVXVXVXVXVXVXVXVXVXVXVXNXMXVXVXVXVXVX",
"MXVXVXVXVXVXVXVXVXVXVXVXVXVXMXMXMXMX9X6.Z.h.Y.mXZXr.p.j.y.rXVXVXVXVXVXVXVXVXVXVXVXVXVXVXVXVXVXVXVXVX",
"MXVXVXVXVXVXVXVXMXVXVXVXVXVXVXVXmXhXrXf.j.XX@XaXlX9XoX#X0XqXvXVXVXVXVXVXVXVXVXVXVXVXVXVXVXVXVXVXVXVX",
"VXVXVXVXVXVXVXVXVXVXVXVXVXVXVXVXVXMXMXMXcXcXMXvXmXnXcXcXnXVXBXVXVXVXVXVXVXVXVXVXVXVXVXVXVXVXVXVXVXVX",
"VXVXVXVXVXVXVXNXVXVXVXVXVXVXVXVXmXVXVXVXVXVXVXVXVXVXVXMXVXVXVXVXVXVXVXVXVXMXVXVXVXVXVXVXVXVXVXVXVXVX",
"VXVXVXVXNXVXVXVXVXVXVXVXVXVXVXVXVXVXVXVXVXNXVXVXVXVXVXVXVXVXVXVXVXVXVXVXVXVXVXVXVXVXVXVXVXVXVXVXVXVX",
"VXVXVXVXBXNXVXVXVXVXVXVXMXVXVXVXVXVXVXVXVXVXVXVXMXVXVXVXVXVXVXVXVXVXVXVXVXVXMXVXMXVXVXVXVXVXVXVXVXVX",
"VXVXVXVXVXVXVXVXVXVXVXVXVXVXVXVXVXVXVXVXVXVXVXVXVXVXVXVXVXVXVXVXVXVXNXVXVXVXVXVXVXVXVXVXVXVXVXVXVXVX",
"VXVXVXVXVXVXVXVXVXVXVXVXVXVXVXVXVXVXVXVXVXVXVXVXVXVXVXVXVXVXVXVXVXVXBXVXVXVXVXVXVXVXVXVXVXVXVXVXVXVX"
};
