/* XPM */
static char *_c89f33458684782badbcd77e1a16027YPRFWfqheXjOts4G[] = {
/* columns rows colors chars-per-pixel */
"50 50 211 2 ",
"   c None",
".  c #5D5C1A",
"X  c #68691B",
"o  c #73721A",
"O  c #7B7B1B",
"+  c #767517",
"@  c #685C2F",
"#  c #696921",
"$  c #7C7B21",
"%  c #767827",
"&  c #7B723A",
"*  c #767934",
"=  c #6B6E2C",
"-  c #7B7D41",
";  c #817F1F",
":  c #867D3A",
">  c #827A2D",
",  c #8D7D41",
"<  c #847A4B",
"1  c #937E4D",
"2  c #927E45",
"3  c #7D8337",
"4  c #7C854A",
"5  c #7C8A4A",
"6  c #788446",
"7  c #788954",
"8  c #7C925E",
"9  c #7E9B63",
"0  c #7BA065",
"q  c #76A36E",
"w  c #7DA369",
"e  c #75A473",
"r  c #7EA97B",
"t  c #84841C",
"y  c #8D8D1C",
"u  c #92921D",
"i  c #9C9C1E",
"p  c #868522",
"a  c #8B8A24",
"s  c #89862B",
"d  c #908E25",
"f  c #949324",
"g  c #9C9C22",
"h  c #95932A",
"j  c #9C9B29",
"k  c #8C8634",
"l  c #898A3C",
"z  c #928E35",
"x  c #948D3C",
"c  c #97933B",
"v  c #989535",
"b  c #A09F20",
"n  c #A09C3C",
"m  c #A6A621",
"M  c #ABAB22",
"N  c #A7A42D",
"B  c #B3B224",
"V  c #A5A432",
"C  c #858443",
"Z  c #8C8343",
"A  c #838549",
"S  c #818B47",
"D  c #95844C",
"F  c #998C4D",
"G  c #948946",
"H  c #87934E",
"J  c #9B9543",
"K  c #9E964B",
"L  c #9F9C4B",
"P  c #8A8555",
"I  c #948452",
"U  c #9B8B55",
"Y  c #938C5A",
"T  c #9D8E5A",
"R  c #958A54",
"E  c #829D5A",
"W  c #8A9A59",
"Q  c #9D925C",
"!  c #979653",
"~  c #A29A4A",
"^  c #A28F5C",
"/  c #A59C53",
"(  c #A2945C",
")  c #A69A5D",
"_  c #A99F5B",
"`  c #A39956",
"'  c #8BA05C",
"]  c #A6A447",
"[  c #ABA15D",
"{  c #A6A557",
"}  c #B0A55F",
"|  c #9B9965",
" . c #9C9C6A",
".. c #809A64",
"X. c #A59660",
"o. c #A69B63",
"O. c #AA9D64",
"+. c #A39F6C",
"@. c #AB9E6A",
"#. c #8CA464",
"$. c #8BA669",
"%. c #86A466",
"&. c #95AA66",
"*. c #96AB68",
"=. c #99AD6A",
"-. c #97A864",
";. c #87A678",
":. c #9DA677",
">. c #ADA165",
",. c #A2A16B",
"<. c #ADA269",
"1. c #AFAE6B",
"2. c #B0A466",
"3. c #B2A66B",
"4. c #B5A96D",
"5. c #ADAB74",
"6. c #A7A978",
"7. c #B6AA71",
"8. c #B9AE76",
"9. c #B4A974",
"0. c #A2B27E",
"q. c #AAB87B",
"w. c #B4B273",
"e. c #B5B47B",
"r. c #BBB37B",
"t. c #BCB97E",
"y. c #BAB076",
"u. c #B1B167",
"i. c #7AAD81",
"p. c #8BAD8B",
"a. c #9CAC83",
"s. c #9BAD8B",
"d. c #9DB48C",
"f. c #97B58A",
"g. c #9AAC94",
"h. c #9AAE9B",
"j. c #8ABB99",
"k. c #9AB394",
"l. c #9AB39D",
"z. c #9BBB9B",
"x. c #99B892",
"c. c #8CAF90",
"v. c #AFAF86",
"b. c #A2B483",
"n. c #A5BA87",
"m. c #A6BC8A",
"M. c #AABA8A",
"N. c #AAB68A",
"B. c #B5B481",
"V. c #BDBB82",
"C. c #BFBE88",
"Z. c #B3BA8A",
"A. c #A3BC96",
"S. c #A6BB95",
"D. c #9CB5A3",
"F. c #9BBCA4",
"G. c #9DBDAB",
"H. c #C0BF8A",
"J. c #C0BF89",
"K. c #C0BC87",
"L. c #9FC09E",
"P. c #A8C18E",
"I. c #A6C294",
"U. c #A4C49C",
"Y. c #AACC9A",
"T. c #A9C797",
"R. c #B9C89A",
"E. c #ACD19E",
"W. c #B8D49F",
"Q. c #B2C18F",
"!. c #9CC3A4",
"~. c #95C4AA",
"^. c #9CC3AC",
"/. c #9DC9AD",
"(. c #9EC5B3",
"). c #9DC9B5",
"_. c #9FCBBA",
"`. c #9FD0BF",
"'. c #A1C4A4",
"]. c #ABC5A4",
"[. c #A4CBA4",
"{. c #ACCCA2",
"}. c #A4CCAC",
"|. c #A9CBAC",
" X c #B2CEA2",
".X c #BBCBA4",
"XX c #B5C8A4",
"oX c #ACD4A4",
"OX c #AED8AA",
"+X c #A9D3AA",
"@X c #B5D6A4",
"#X c #BBD6A3",
"$X c #B5D7A8",
"%X c #A0CCB3",
"&X c #A0CEBE",
"*X c #AECEB1",
"=X c #AAD3B5",
"-X c #A3D2BC",
";X c #ACD6BE",
":X c #A7D3B5",
">X c #B3D5BC",
",X c #B7D4B5",
"<X c #C1C18D",
"1X c #C2D39E",
"2X c #C4D89D",
"3X c #C2C59E",
"4X c #C5CCA7",
"5X c #C8D6B5",
"6X c #A0CFC0",
"7X c #A3D4C3",
"8X c #A9D6C2",
/* pixels */
"                                                    a                                               ",
"                                              j a m b b m m j f                                     ",
"                                        g M B B M m m m m m m m b g g                               ",
"                                    a f i M M M M B B M B m m m N g g d g j                         ",
"                                a f m m m m m m m m m B B N J [ / ~ _ / n n J                       ",
"                              a i m m m m m m M m m m N ~ 2.4.4.4.4.7.3.3.3.4.Y P                   ",
"                            f m m m m m m m M m m i v ~ >.4.4.4.4.4.3.T >.4.4.O.3.<.R               ",
"                          h b m m m m M M m m i u f / 4.<.( 4.4.4.o.U U 2.4.4.4.4.4.4.Q             ",
"                          f m m m M b m M m i u u z ) 4.>.T @.4.4.2.X.) X.4.4.4.3.3.4.4.Q           ",
"                        f m m m m N h c u.~ y u h [ 4.4.U 1 I 3.4.3.4.3.o.4.4.4.3.Q 3.4.O.          ",
"                        L j g j ] Q.w.V.V.3.c a ~ 4.3.4.4.3.3.4.4.3.4.4.4.3.4.O.( ( 4.4.<.Q         ",
"                      P q.L >.t.<X<X<XH.7.4.K G 7.4.4.4.4.4.<.>.,.,.,.O.O.3.4.3.U 2.4.4.4.2.s       ",
"                      +.B.C.H.<X<X<X<X8.4.( U X.4.4.3.<.O. .0.Q.W.2X1XB.- & U <.4.4.3.4.4.3.z p     ",
"                    5.H.H.Q.H.H.K.O.O.4.4.3.^ I ( 4.<.| n.W.#X1X#X#X2X2X0.& @ < @.4.4.4.( O.z y     ",
"                   .C.C.H.H.K.<XK.( ^ 4.4.4.( ) o.+.0.W.#X@X$X@X#X#XW.W.2X-.l & , 2.3.T U O.v u h   ",
"                  B.H.H.H.H.K.H.K.7.3.4.4.4.( >.,.m.@X$XOXOXOXOXOX$X#X#X#XR.H Z , U >.^ U X.x y y   ",
"                ,.<XC.C.t.{ y.H.8.4.4.4.3.4.4.+.A.=X=X=X-X-X-X-X7X7X8X8X>X>X;.< , , ( 4.2.O.[ h a a ",
"                e.V.<Xw.] g V ] _ 3.O.4.3.3.| A.8X7X6X6X7X_._._.6X6X6X7X8X>Xz.4 Z l D 2.4.3.4.~ u a ",
"              +.<XC.H.w.m m i y z X.( 3.9.+.x.7X7X7X_._.(._.).(.&X(.&X7X7X>X XW x 2 : ( 4.4.3._ y p ",
"              6.K.C.H.1.g b u u k D U 3.1.:.7X7X7X&X(.(.G.G.G.(.(.(.%X6X7X=X$X%.S , : 2 O.4.4.>.a a ",
"              +.C.C.C.e.n b u u z O.X.O.,.T.OX+X{.[.U.U.U.S.S.U.U.U.U.%X-X7X8X;.7 C , , O.O.( ) f p ",
"            -.B.V.V.V.C.7.: y u [ 4.O.>.0.OXE.E.T.T.P.m.m.n.n.n.m.S.'.%X6X7X8Xp.7 A , , ( >.^ O.c p ",
"            9.K.t.V.V.C.7.1 z / 3.4.4.,.Y.OXE.Y.T.P.n.n.b.b.b.n.x.G.G.(._.7X8Xc.7 A , , U U 1 U K l ",
"            e.V.t.V.V.t.V.4.4.4.4.4.<.0.OXE.E.T.P.n.b.b.0.b.b.g.D.D.G.(._.6X7Xc.7 A , , F 3.2.3._ Z ",
"          | V.V.V.V.t.V.r.4.4.4.4.3.| T.oXoXT.I.m.n.b.b.b.s.g.g.h.D.G.(._.6X7Xc.7 A , , D 4.4.4.` & ",
"          ,.V.t.V.t.V.V.y.4.4.4.4.3.:.oX+X[.U.A.x.d.d.a.a.s.s.s.k.x.A.A.'.}.+Xf.5 C , , G 3.4.4.X.A ",
"          1.V.t.t.V.V.t.y.4.} 4.4.>.A.;X_.).G.G.D.h.g.a.a.a.a.a.a.d.x.A.!.[.}.$.5 l : , D 3.3.4.7.Q ",
"          5.K.V.V.V.V.t.4.2.U 3.4.,.|.7X7X_.%XG.D.s.a.:.a.a.:.a.a.d.A.z.U./.[.9 5 C , , F 4.4.O.<.Y ",
"          5.C.t.K.t.t.r.7.T I U 3.:.*X8X6X_.G.F.k.s.p.a.a.a.a.g.k.k.z.!./.-X^.9 5 C , , U ( O.U >.P ",
"          Y r.V.t.t.V.r.4.X.X.( 3.:.{.+X}.'.G.G.D.h.g.h.g.g.g.h.D.G.(.&X7X7XF.7 4 C , , ( X.D O.<.  ",
"          <.r.r.B.K.r.3.4.4.4.7.>.0.oX|.%X%X%XG.G.D.h.h.h.h.h.D.G.G.(.&X&X%X;.4 6 , , , ) 3.( I (   ",
"          7.8.r.8.r.X.1 3.4.4.4.O.b. X:X6X&X&X(.G.G.D.D.D.h.D.D.z.F.!./.}.'.8 6 l : , 2 >.T O.3.Q   ",
"          9.8.8.8.8.8.4.4.4.3.4.Q M.,X>X7X&X).^.F.F.k.k.k.k.k.z.z.F.~./.[.f.5 3 o % , G 3.2._ 3.Y   ",
"          9.8.8.8.8.8.7.4.4.4.4.@.S.,X|.}./.!.!.z.z.j.l.k.j.F.F.~.)._./.L.w 6 X X o * G K a a G     ",
"          9.8.8.8.8.8.7.4.4.4.4.<.N.XXXX[.}./.^.^.F.^.^.(.(.)._.`.).~.r 0 0 0 5 3 X . o t O o %     ",
"          <.8.8.8.8.8.7.4.@.^ 4.<.v..X*X*X%X7X`.`.&X&X&X_.).).~.j.r q 0 %.' -.*.*.E = . #           ",
"          @.8.8.8.8.8.7.O.T ^ 4.<.Z.5X5X,X>X8X7X7X`._.).~.~.j.i.e q w $.*.*.=.=.=.                  ",
"          +.8.8.8.8.8.7.) U U 3.<.v.5X5X5X,X*X|.}././.~.j.i.e q w %.*.=.=.=.                        ",
"          Y 9.8.8.8.8.7.3.4.o.<.3.6.4X4XXXXX].].].L.c.r q q w $.&.=.=.                              ",
"            P 3.8.8.8.8.4.4.3.4.3. .3X4X3XXXXX].f.;.w 0 w $.=.=.=.                                  ",
"            R o.@.4.7.@.3.4.3.3.4.>.v.4X4XR.n.$.0 9 %.&.=.=.                                        ",
"            R ) O.X.O.1 O.4.4.4.3.3.+.3XZ.&.E E ' &.=.                                              ",
"              G ` O.) O.4.4.4.2.K O.<.W W ' #.&.                                                    ",
"            s $ k ( ) ) 2.4.3.z t x / Y W *.                                                        ",
"              % O k ! ) O.~ z y u u a c R                                                           ",
"              -.> o $ k k ; t u u u u t *                                                           ",
"          =.=.&.3 * % o + + ; t y y t $                                                             ",
"    =.=.=.*.*.&.-.*.-.H * X + + p                                                                   ",
"=.=.=.=.=.=.=.=.=.=.=.=.=.5 = #                                                                     ",
"=.    =.      =.=.                                                                                  "
};
