/* XPM */
static char *_484828aedfc46e7b4e76643052f153a5cFMDMv5ezrr9SxV[] = {
/* columns rows colors chars-per-pixel */
"100 100 6 1 ",
"  c black",
". c red",
"X c #F63F3F",
"o c #9A0081",
"O c #FFDA81",
"+ c white",
/* pixels */
"                                                                                                    ",
" OOOOOOOOOOOOOOOOOOOOOOOOOOOOOOOOOOOOOOOOOOOOOOOOOOOOOOOOOOOOOOOOOOOOOOOOOOOOOOOOOOOOOOOOOOOOOOOOOO ",
" OOOOOOOOOOOOOOOOOOOOOOOOOOOOOOOOOOOOOOOOOOOOOOOOOOOOOOOOOOOOOOOOOOOOOOOOOOOOOOOOOOOOOOOOOOOOOOOOOO ",
" OOOOOOOOOOOOOOOOOOOOOOOOOOOOOOOOOOOOOOOOOOOOOOOOOOOOOOOOOOOOOOOOOOOOOOOOOOOOOOOOOOOOOOOOOOOOOOOOOO ",
" OOOOOOOOOOOOOOOOOOOOOOOOOOOOOOOOOOOOOOOOOOOOOOOOOOOOOOOOOOOOOOOOOOOOOOOOOOOOOOOOOOOOOOOOOOOOOOOOOO ",
" OOOOOOOOOOOOOOOOOOOOOOOOOOOOOOOOOOOOOOOOOOOOOOOOOOOOOOOOOOOOOOOOOOOOOOOOOOOOOOOOOOOOOOOOOOOOOOOOOO ",
" OOOOOOOOOOOOOOOOOOOOOOOOOOOOOOOOOOOOOOOOOOOOOOOOOOOOOOOOOOOOOOOOOOOOOOOOOOOOOOOOOOOOOOOOOOOOOOOOOO ",
" OOOOOOOOOOOOOOOOOOOOOOOOOOOOOOOOOOOOOOOOOOOOOOOOOOOOOOOOOOOOOOOOOOOOOOOOOOOOOOOOOOOOOOOOOOOOOOOOOO ",
" OOOOOOOOOOOOOOOOOOOOOOOOOOOOOOOOOOOOOOOOOOOOOOOOOOOOOOOOOOOOOOOOOOOOOOOOOOOOOOOOOOOOOOOOOOOOOOOOOO ",
" OOOOOOOOOOOOOOOOOOOOOOOOOOOOOOOOOOOOOOOOOOOOOOOOOOOOOOOOOOOOOOOOOOOOOOOOOOOOOOOOOOOOOOOOOOOOOOOOOO ",
" OOOOOOOOOOOOOOOOOOOOOOOOOOOOOOOOOOOOOOOOOOOOOOOOOOOOOOOOOOOOOOOOOOOOOOOOOOOOOOOOOOOOOOOOOOOOOOOOOO ",
" OOOOOOOOOOOOOOOOOOOOOOOOOOOOOOOOOOOOOOOOOOO              OOOOOOOOOOOOOOOOOOOOOOOOOOOOOOOOOOOOOOOOO ",
" OOOOOOOOOOOOOOOOOOOOOOOOOOOOOOOOOOOOOOOOOO                  OOOOOOOOOOOOOOOOOOOOOOOOOOOOOOOOOOOOOO ",
" OOOOOOOOOOOOOOOOOOOOOOOOOOOOOOOOOOOOOOOO     ..........       OOOOOOOOOOOOOOOOOOOOOOOOOOOOOOOOOOOO ",
" OOOOOOOOOOOOOOOOOOOOOOOOOOOOOOOOOOOOO      ...............      OOOOOOOOOOOOOOOOOOOOOOOOOOOOOOOOOO ",
" OOOOOOOOOOOOOOOOOOOOOOOOOOOOOOOOOOO      ...................     OOOOOOOOOOOOOOOOOOOOOOOOOOOOOOOOO ",
" OOOOOOOOOOOOOOOOOOOOOOOOOOOOOOOOO     ........................    OOOOOOOOOOOOOOOOOOOOOOOOOOOOOOOO ",
" OOOOOOOOOOOOOOOOOOOOOOOOOOOOOOO     ...........................    OOOOOOOOOOOOOOOOOOOOOOOOOOOOOOO ",
" OOOOOOOOOOOOOOOOOOOOOOOOOOOOOO    .............XX...............   OOOOOOOOOOOOOOOOOOOOOOOOOOOOOOO ",
" OOOOOOOOOOOOOOOOOOOOOOOOOOOOO   ...............XXXX..............   OOOOOOOOOOOOOOOOOOOOOOOOOOOOOO ",
" OOOOOOOOOOOOOOOOOOOOOOOOOOOO   ...............XXXXXX.............   OOOOOOOOOOOOOOOOOOOOOOOOOOOOOO ",
" OOOOOOOOOOOOOOOOOOOOOOOOOOO   ................XXXXXX..............   OOOOOOOOOOOOOOOOOOOOOOOOOOOOO ",
" OOOOOOOOOOOOOOOOOOOOOOOOO    .................XXXXXXX.............   OOOOOOOOOOOOOOOOOOOOOOOOOOOOO ",
" OOOOOOOOOOOOOOOOOOOOOOOO     .XXX.........XXXXXXXXXXXX.............   OOOOOOOOOOOOOOOOOOOOOOOOOOOO ",
" OOOOOOOOOOOOOOOOOOOOOOO     .XXXX........XXXXXX.XXXXXX.........XX..   OOOOOOOOOOOOOOOOOOOOOOOOOOOO ",
" OOOOOOOOOOOOOOOOOOOOOO    ...XXXXX.......XX.....XXXXXXX........XX...   OOOOOOOOOOOOOOOOOOOOOOOOOOO ",
" OOOOOOOOOOOOOOOOOOOOOO   ....XXXXX.......XX......XXXXXXX......XXX...   OOOOOOOOOOOOOOOOOOOOOOOOOOO ",
" OOOOOOOOOOOOOOOOOOOOO   .....XXXXX.......XX.......XXXXXXX.....XXX....  OOOOOOOOOOOOOOOOOOOOOOOOOOO ",
" OOOOOOOOOOOOOOOOOOOOO   .....XXXXXX......XX.......XXXXXXX.....XXXX...  OOOOOOOOOOOOOOOOOOOOOOOOOOO ",
" OOOOOOOOOOOOOOOOOOOO   .......XXXXXX.....XX.......XXXXXXX.....XXXX...   OOOOOOOOOOOOOOOOOOOOOOOOOO ",
" OOOOOOOOOOOOOOOOOOOO   ........XXXXX.....XX.......XX...XX.....XX.....   OOOOOOOOOOOOOOOOOOOOOOOOOO ",
" OOOOOOOOOOOOOOOOOOOO  .........XXXXX.....XX......XXX..................  OOOOOOOOOOOOOOOOOOOOOOOOOO ",
" OOOOOOOOOOOOOOOOOOOO  .........XXXXX.....XXXX...XXXX..................  OOOOOOOOOOOOOOOOOOOOOOOOOO ",
" OOOOOOOOOOOOOOOOOOO   ..........XXXX......XXXXXXXXX..................   OOOOOOOOOOOOOOOOOOOOOOOOOO ",
" OOOOOOOOOOOOOOOOOOO    ...   ....XX.......XXXXXXXX..................    OOOOOOOOOOOOOOOOOOOOOOOOOO ",
" OOOOOOOOOOOOOOOOOOO           ................XX.................      OOOOOOOOOOOOOOOOOOOOOOOOOOO ",
" OOOOOOOOOOOOOOOOOO         O   ................................      OOOOOOOOOOOOOOOOOOOOOOOOOOOOO ",
" OOOOOOOOOOOOOOOOOO   +    OOO    ............................     OOOOOOOOOOOOOOOOOOOOOOOOOOOOOOOO ",
" OOOOOOOOOOOOOOOOO   +++  OOOOO     ........................       OOOOOOOOOOOOOOOOOOOOOOOOOOOOOOOO ",
" OOOOOOOOOOOOOOOOO    +   OOOOOO      ..................         OOOOOOOOOOOOOOOOOOOOOOOOOOOOOOOOOO ",
" OOOOOOOOOOOOOOOOO        OOOOOO        .......               o  OOOOOOOOOOOOOOOOOOOOOOOOOOOOOOOOOO ",
" OOOOOOOOOOOOOOOOOOO     OOOOOOOO                        oooooo  OOOOOOOOOOOOOOOOOOOOOOOOOOOOOOOOOO ",
" OOOOOOOOOOOOOOOOOOOOOOOOOOOOOOO   ooo           oooooooooo  oo   OOOOOOOOOOOOOOOOOOOOOOOOOOOOOOOOO ",
" OOOOOOOOOOOOOOOOOOOOOOOOOOOOOOO   ooooooooooooooooooooooo   ooo  OOOOOOOOOOOOOOOOOOOOOOOOOOOOOOOOO ",
" OOOOOOOOOOOOOOOOOOOOOOOOOOOOOOO  ooooooooooooooooooooooo    ooo  OOOOOOOOOOOOOOOOOOOOOOOOOOOOOOOOO ",
" OOOOOOOOOOOOOOOOOOOOOOOOOOOOOOO  oooo   oooooooooooooo     oooo  OOOOOOOOOOOOOOOOOOOOOOOOOOOOOOOOO ",
" OOOOOOOOOOOOOOOOOOOOOOOOOOOOOO   oooo    oooooooooooo    oooooo  OOOOOOOOOOOOOOOOOOOOOOOOOOOOOOOOO ",
" OOOOOOOOOOOOOOOOOOOOOOOOOOOOOO   oooooo     ooooooooo  oooooooo   OOOOOOOOOOOOOOOOOOOOOOOOOOOOOOOO ",
" OOOOOOOOOOOOOOOOOOOOOOOOOOOOOO  oooooooo    ooooooooooooooooooo   OOOOOOOOOOOOOOOOOOOOOOOOOOOOOOOO ",
" OOOOOOOOOOOOOOOOOOOOOOOOOOOOO   oooooooooooooooooooooooooooooooo  OOOOOOOOOOOOOOOOOOOOOOOOOOOOOOOO ",
" OOOOOOOOOOOOOOOOOOOOOOOOOOOOO   oooooooooooooooooooooooooooooooo  OOOOOOOOOOOOOOOOOOOOOOOOOOOOOOOO ",
" OOOOOOOOOOOOOOOOOOOOOOOOOOOOO  oooooooo    ooooooooooooooooooooo  OOOOOOOOOOOOOOOOOOOOOOOOOOOOOOOO ",
" OOOOOOOOOOOOOOOOOOOOOOOOOOOOO  ooooooo     oooooooooooo  ooooooo   OOOOOOOOOOOOOOOOOOOOOOOOOOOOOOO ",
" OOOOOOOOOOOOOOOOOOOOOOOOOOOO   ooooooo     ooooooooooo     oooooo  OOOOOOOOOOOOOOOOOOOOOOOOOOOOOOO ",
" OOOOOOOOOOOOOOOOOOOOOOOOOOOO   ooooooo  o  ooooooooooo      ooooo  OOOOOOOOOOOOOOOOOOOOOOOOOOOOOOO ",
" OOOOOOOOOOOOOOOOOOOOOOOOOOOO  oooooooo  o  ooooooooooo  o   ooooo   OOOOOOOOOOOOOOOOOOOOOOOOOOOOOO ",
" OOOOOOOOOOOOOOOOOOOOOOOOOOOO  ooooooo   o  ooooooooooo  o   oooooo  OOOOOOOOOOOOOOOOOOOOOOOOOOOOOO ",
" OOOOOOOOOOOOOOOOOOOOOOOOOOO   ooooooo      ooooooooooo      oooooo   OOOOOOOOOOOOOOOOOOOOOOOOOOOOO ",
" OOOOOOOOOOOOOOOOOOOOOOOOOOO  ooooooooo    oooooooooooo     oooooooo   OOOOOOOOOOOOOOOOOOOOOOOOOOOO ",
" OOOOOOOOOOOOOOOOOOOOOOOOOO   oooooooooooooooooooooooooooooooooooooo    OOOOOOOOOOOOOOOOOOOOOOOOOOO ",
" OOOOOOOOOOOOOOOOOOOOOOOOOO   oooooooooooooooooooooooooooooooooooooooo   OOOOOOOOOOOOOOOOOOOOOOOOOO ",
" OOOOOOOOOOOOOOOOOOOOOOOOOO  oooooooooooooooooooo  oooooooooooooooooooo    OOOOOOOOOOOOOOOOOOOOOOOO ",
" OOOOOOOOOOOOOOOOOOOOOOOOO   ooooooooooooooooooo    oooooooooooooooooooo    OOOOOOOOOOOOOOOOOOOOOOO ",
" OOOOOOOOOOOOOOOOOOOOOOOOO  ooooooooooooooooooo      oooooooooooooooooooo     OOOOOOOOOOOOOOOOOOOOO ",
" OOOOOOOOOOOOOOOOOOOOOOOO   oooooooooooooooooo   oo  oooooooooooooooooooooo      OOOOOOOOOOOOOOOOOO ",
" OOOOOOOOOOOOOOOOOOOOOOO   ooooooooooooooooooo  ooo   ooooooooooooooooooooooo     OOOOOOOOOOOOOOOOO ",
" OOOOOOOOOOOOOOOOOOOOOO    oooooooooooooooooo   oooo  ooooooooooooooooooooooooo     OOOOOOOOOOOOOOO ",
" OOOOOOOOOOOOOOOOOOOOOO   ooooooooooooooooooo  ooooo  oooooooooooooooooooooooooo     OOOOOOOOOOOOOO ",
" OOOOOOOOOOOOOOOOOOOOO   oooooooooooooooooooo  ooooo  oooooooooooooooooooooooooooo    OOOOOOOOOOOOO ",
" OOOOOOOOOOOOOOOOOOOO   oooooooooooooooooooooooooooo  ooooooooooooooooooooooooooooo   OOOOOOOOOOOOO ",
" OOOOOOOOOOOOOOOOOO     oooooooooooooooooooooooooooo   ooooooooooooooooooooooooooooo   OOOOOOOOOOOO ",
" OOOOOOOOOOOOOOOOO     oooooooooooooooooooooooooooooo  ooooooooooooooooooooooooooooo   OOOOOOOOOOOO ",
" OOOOOOOOOOOOOOO     oooooooooooooooooooooooooooooooo  oooooooooooooooooooooooooooooo   OOOOOOOOOOO ",
" OOOOOOOOOOOOOO    oooooooooooooooooooooooooooooooooooooooooooooooooooooooooooooooooo   OOOOOOOOOOO ",
" OOOOOOOOOOOOOO   oooooooooooooooooooooooooooooooooooooooooooooooooooooooooooooooooooo  OOOOOOOOOOO ",
" OOOOOOOOOOOOO   oooooooooooooooooooooooooooooooooooooooooooo   oooooooooooooooooooooo  OOOOOOOOOOO ",
" OOOOOOOOOOOOO   oooooooooooooooooooooooooooooooooooooooooooo   ooooooooo   oooooooooo  OOOOOOOOOOO ",
" OOOOOOOOOOOOO  ooooooooo  oooooooooooooooooooooooooooooooooo   ooooooooo    ooooooooo  OOOOOOOOOOO ",
" OOOOOOOOOOOOO  oooooooo   oooooooooooooooooooooooo   ooooooo    ooooooooo    oooooooo  OOOOOOOOOOO ",
" OOOOOOOOOOOOO    oooo     oooooooooo  oooooooooooo   oooooooo   oooooooooo    oooooo   OOOOOOOOOOO ",
" OOOOOOOOOOOOOO            ooooooooo   oooooooooooo   oooooooo    oooooooooo            OOOOOOOOOOO ",
" OOOOOOOOOOOOOOO       O  oooooooooo   oooooooooooo   ooooooooo   ooooooooooo          OOOOOOOOOOOO ",
" OOOOOOOOOOOOOOOOOOOOOOO  oooooooooo   oooooooooooo   oooooooooo  ooooooooooo  OOOOOOOOOOOOOOOOOOOO ",
" OOOOOOOOOOOOOOOOOOOOOO   oooooooooo   oooooooooooo   oooooooooo   oooooooooo  OOOOOOOOOOOOOOOOOOOO ",
" OOOOOOOOOOOOOOOOOOOOOO  ooooooooooo   oooooooooooo   oooooooooo    ooooooooo  OOOOOOOOOOOOOOOOOOOO ",
" OOOOOOOOOOOOOOOOOOOOOO  ooooooooooo   oooooooooooo   oooooooooo     oooooooo  OOOOOOOOOOOOOOOOOOOO ",
" OOOOOOOOOOOOOOOOOOOOOO  ooooooooooo  oooooooooooo     ooooooooo  O  ooooooo   OOOOOOOOOOOOOOOOOOOO ",
" OOOOOOOOOOOOOOOOOOOOOO  oooooooooo   ooooooooooo   O  ooooooooo  O    ooooo  OOOOOOOOOOOOOOOOOOOOO ",
" OOOOOOOOOOOOOOOOOOOOO   ooooooooo    oooooooooo   OO   ooooooo   OO    ooo   OOOOOOOOOOOOOOOOOOOOO ",
" OOOOOOOOOOOOOOOOOOOOO  ooooooooo     oooooooo    OOOO  ooooooo  OOOOO       OOOOOOOOOOOOOOOOOOOOOO ",
" OOOOOOOOOOOOOOOOOOOOO  ooooooooo  O  oooooo     OOOOO    oooo   OOOOOO      OOOOOOOOOOOOOOOOOOOOOO ",
" OOOOOOOOOOOOOOOOOOOOO  ooooooo    O   oo      OOOOOOOO         OOOOOOOOOOOOOOOOOOOOOOOOOOOOOOOOOOO ",
" OOOOOOOOOOOOOOOOOOOOO  ooooo     OOO        OOOOOOOOOOOO      OOOOOOOOOOOOOOOOOOOOOOOOOOOOOOOOOOOO ",
" OOOOOOOOOOOOOOOOOOOOO  ooo     OOOOO     OOOOOOOOOOOOOOOOOOOOOOOOOOOOOOOOOOOOOOOOOOOOOOOOOOOOOOOOO ",
" OOOOOOOOOOOOOOOOOOOOO        OOOOOOOOOOOOOOOOOOOOOOOOOOOOOOOOOOOOOOOOOOOOOOOOOOOOOOOOOOOOOOOOOOOOO ",
" OOOOOOOOOOOOOOOOOOOOO      OOOOOOOOOOOOOOOOOOOOOOOOOOOOOOOOOOOOOOOOOOOOOOOOOOOOOOOOOOOOOOOOOOOOOOO ",
" OOOOOOOOOOOOOOOOOOOOOOOOOOOOOOOOOOOOOOOOOOOOOOOOOOOOOOOOOOOOOOOOOOOOOOOOOOOOOOOOOOOOOOOOOOOOOOOOOO ",
" OOOOOOOOOOOOOOOOOOOOOOOOOOOOOOOOOOOOOOOOOOOOOOOOOOOOOOOOOOOOOOOOOOOOOOOOOOOOOOOOOOOOOOOOOOOOOOOOOO ",
" OOOOOOOOOOOOOOOOOOOOOOOOOOOOOOOOOOOOOOOOOOOOOOOOOOOOOOOOOOOOOOOOOOOOOOOOOOOOOOOOOOOOOOOOOOOOOOOOOO ",
"                                                                                                    "
};
